<svg xmlns="http://www.w3.org/2000/svg" viewBox="0 0 132 60">
    <defs>
        <style>.cls-1{fill:#f3f2f5;}.cls-2{fill:#7c4dff;}</style>
    </defs>
    <title>logo</title>
    <g id="Слой_2" data-name="Слой 2">
        <g id="Слой_1-2" data-name="Слой 1">
            <path class="cls-1"
                  d="M15.12,35V20H5V35H0V15H20.16V35ZM124.48,20h-6v5h6a2.5,2.5,0,1,0,0-5Zm0,10h-6v5h-5V15h11.09a7.5,7.5,0,1,1,0,15Zm-14.11.1V35H93.74V15h16.63v4.9H98.78v2.65h10.58v4.9H98.78V30.1ZM84.67,35V27.5H74.59V35h-5V15h5v7.5H84.67V15h5V35ZM57,19.5A5.5,5.5,0,1,0,62.5,25,5.53,5.53,0,0,0,57,19.5Zm0,16A10.5,10.5,0,1,1,67.54,25,10.57,10.57,0,0,1,57,35.5ZM39.3,35V22.5L29.86,35H24.19V15h5V27.5L38.67,15h5.67V35Z"/>
            <path class="cls-2" d="M0,10H5V5H127v5h5V0H0ZM132,50h0V35h-5V45H5V40H0V60H5V50H132Z"/>
        </g>
    </g>
</svg>